<?xml version="1.0" encoding="utf-8"?>
<!-- Generator: Adobe Illustrator 19.1.1, SVG Export Plug-In . SVG Version: 6.00 Build 0)  -->
<svg version="1.1" id="logo_aurora" xmlns="http://www.w3.org/2000/svg" xmlns:xlink="http://www.w3.org/1999/xlink" x="0px"
	 y="0px" viewBox="-266.3 350.9 255.1 247.4" style="enable-background:new -266.3 350.9 255.1 247.4;" xml:space="preserve">
<style type="text/css">
	.st0{fill:#B8B7B5;}
	.st1{opacity:0.2;enable-background:new    ;}
	.st2{fill:#FFFFFF;}
	.st3{fill:#F2FCFF;stroke:#ACACAC;stroke-miterlimit:10;}
</style>
<path class="st0" d="M-251.2,557.6c0-5.9,4.4-10,9.9-10c3.4,0,5.8,1.7,7.3,3.8l-2,1.1c-1.1-1.6-3.1-2.8-5.3-2.8
	c-4.2,0-7.5,3.2-7.5,7.9c0,4.6,3.2,7.9,7.5,7.9c2.2,0,4.2-1.2,5.3-2.8l2.1,1.1c-1.6,2.2-3.9,3.8-7.4,3.8
	C-246.8,567.6-251.2,563.5-251.2,557.6z"/>
<path class="st0" d="M-222.1,567.2v-1.6c-1.2,1.3-2.8,1.9-4.6,1.9c-2.4,0-4.9-1.6-4.9-4.6c0-3.1,2.5-4.6,4.9-4.6
	c1.9,0,3.5,0.6,4.6,1.9v-2.5c0-1.9-1.5-3-3.5-3c-1.7,0-3,0.6-4.3,1.9l-1-1.5c1.5-1.6,3.3-2.3,5.6-2.3c3,0,5.4,1.3,5.4,4.7v9.6
	H-222.1z M-222.1,564.3v-2.6c-0.8-1.2-2.3-1.7-3.9-1.7c-2,0-3.5,1.3-3.5,3.1c0,1.8,1.4,3,3.5,3C-224.5,566-223,565.4-222.1,564.3z"
	/>
<path class="st0" d="M-215.6,567.2v-14h2.2v5.8h7.3v-5.8h2.2v14h-2.2V561h-7.3v6.3H-215.6z"/>
<path class="st0" d="M-190.1,567.2l-5-6.3l-2.3,2.3v4h-2.2v-14h2.2v7.5l7.4-7.5h2.8l-6.2,6.4l6.2,7.7H-190.1z"/>
<path class="st0" d="M-182.2,567.2v-12.1h-4.1v-1.9h10.3v1.9h-4.1v12.1H-182.2z"/>
<path class="st0" d="M-174.4,561.2v-1.9h7v1.9H-174.4z"/>
<path class="st0" d="M-150.5,567.2V550h-11.3v17.2h-2.4v-19.3h16.1v19.3H-150.5z"/>
<path class="st0" d="M-144.5,560.2c0-4.1,2.9-7.3,6.9-7.3c4.2,0,6.7,3.3,6.7,7.5v0.6h-11.3c0.2,2.6,2,4.8,5,4.8
	c1.6,0,3.2-0.6,4.3-1.8l1,1.4c-1.4,1.4-3.3,2.1-5.6,2.1C-141.5,567.6-144.5,564.6-144.5,560.2z M-137.6,554.7c-3,0-4.5,2.5-4.6,4.7
	h9.2C-133.1,557.3-134.5,554.7-137.6,554.7z"/>
<path class="st0" d="M-124.8,567.2v-12.1h-4.1v-1.9h10.3v1.9h-4.1v12.1H-124.8z"/>
<path class="st0" d="M-116.5,560.2c0-4.1,2.9-7.3,6.9-7.3c4.2,0,6.7,3.3,6.7,7.5v0.6h-11.3c0.2,2.6,2,4.8,5,4.8
	c1.6,0,3.2-0.6,4.3-1.8l1,1.4c-1.4,1.4-3.3,2.1-5.6,2.1C-113.5,567.6-116.5,564.6-116.5,560.2z M-109.7,554.7c-3,0-4.5,2.5-4.6,4.7
	h9.2C-105.1,557.3-106.5,554.7-109.7,554.7z"/>
<path class="st0" d="M-97.2,565.1v7.5h-2.2v-19.3h2.2v2.1c1-1.4,2.8-2.4,4.7-2.4c3.7,0,6.2,2.8,6.2,7.3c0,4.5-2.6,7.4-6.2,7.4
	C-94.4,567.6-96.1,566.7-97.2,565.1z M-88.5,560.2c0-3.1-1.7-5.4-4.5-5.4c-1.7,0-3.4,1-4.2,2.2v6.3c0.8,1.2,2.5,2.3,4.2,2.3
	C-90.2,565.6-88.5,563.3-88.5,560.2z"/>
<path class="st0" d="M-83.6,559.6c0-6.8,2.5-9.6,7.3-10.3c3.1-0.5,3.9-0.8,3.9-1.4h2.1c0,2.3-3.1,2.9-5.5,3.2
	c-4.1,0.6-5.4,2.4-5.9,4.8c1-1.6,2.8-3,5.3-3c4,0,6.6,3.3,6.6,7.3c0,4-2.6,7.4-6.9,7.4C-81,567.6-83.6,564.2-83.6,559.6z M-72,560.2
	c0-2.8-1.7-5.4-4.6-5.4c-3,0-4.7,2.6-4.7,5.4c0,2.9,1.7,5.5,4.7,5.5C-73.7,565.6-72,563.1-72,560.2z"/>
<path class="st0" d="M-66.5,570.7c0.3,0.1,0.8,0.2,1.2,0.2c1,0,1.6-0.3,2.1-1.5l0.9-2.1l-5.9-14.2h2.3l4.7,11.5l4.6-11.5h2.4
	l-7,16.9c-0.8,2-2.3,2.8-4.1,2.8c-0.5,0-1.2-0.1-1.6-0.2L-66.5,570.7z"/>
<path class="st0" d="M-49.7,565.1v7.5h-2.2v-19.3h2.2v2.1c1-1.4,2.8-2.4,4.7-2.4c3.7,0,6.2,2.8,6.2,7.3c0,4.5-2.6,7.4-6.2,7.4
	C-46.9,567.6-48.6,566.7-49.7,565.1z M-41,560.2c0-3.1-1.7-5.4-4.5-5.4c-1.7,0-3.4,1-4.2,2.2v6.3c0.8,1.2,2.5,2.3,4.2,2.3
	C-42.7,565.6-41,563.3-41,560.2z"/>
<path class="st0" d="M-25.5,555.1h-7.6v12.1h-2.2v-14h9.8V555.1z"/>
<path id="circle" class="st1" d="M-138.5,350.9c22.1,0,40,17.9,40,40c0,22.1-17.9,40-40,40c-22.1,0-40-17.9-40-40
	C-178.5,368.8-160.6,350.9-138.5,350.9z"/>
<path id="logo_icon" class="st2" d="M-158.9,413.6c-0.4,0-0.8-0.1-1.2-0.4c-0.6-0.5-0.8-1.4-0.4-2.2l20.8-41.9c0.3-0.6,0.9-1,1.6-1
	c0.7,0,1.3,0.4,1.6,1l20,41.9c0.4,0.8,0.1,1.7-0.5,2.2c-0.7,0.5-1.6,0.5-2.3,0l-12.4-10.2l-4.9,8c-0.3,0.5-0.9,0.8-1.6,0.9
	c-0.6,0-1.2-0.3-1.5-0.9l-4.4-7.6l-13.8,9.9C-158.2,413.5-158.5,413.6-158.9,413.6z M-143.5,398.9c0.1,0,0.3,0,0.4,0
	c0.5,0.1,0.9,0.4,1.2,0.9l3.9,6.7l4.4-7.2c0.3-0.4,0.7-0.7,1.2-0.8c0.5-0.1,1,0.1,1.4,0.4l7.7,6.3l-14.8-31.2l-16,32l9.5-6.9
	C-144.2,399-143.8,398.9-143.5,398.9z"/>
<line class="st3" x1="-245.5" y1="531.3" x2="-27" y2="531.3"/>
<g>
	<path d="M-193.2,472.4l-5.6-6.3l5.6-6.2h2.6l-5.6,6.2l5.6,6.3H-193.2z M-188.2,472.4l-5.6-6.3l5.6-6.2h2.6l-5.6,6.2l5.6,6.3H-188.2
		z"/>
	<path d="M-183.5,470.4l2.5-1.4c1.3,2,3.7,3.4,6.4,3.4c4.8,0,8.5-3.5,8.9-8.5h-12.8v-2.6h12.7c-0.7-4.7-4.2-7.9-8.9-7.9
		c-2.7,0-5.1,1.4-6.4,3.4l-2.5-1.4c1.9-2.6,4.7-4.6,8.9-4.6c6.7,0,12,4.9,12,12.1s-5.3,12.1-12,12.1
		C-178.8,475-181.6,473.1-183.5,470.4z"/>
	<path d="M-161,472.5c2.8,0,4.4-1.5,5.4-9.5l1.4-11.7h14.3v23.3h-2.9v-20.8h-8.8l-1.2,9.3c-1.3,10.3-4.1,11.8-8.2,11.8V472.5z"/>
	<path d="M-134.5,474.6v-23.3h2.9v18.2l13.4-18.2h3v23.3h-2.9V456l-13.6,18.6H-134.5z"/>
	<path d="M-103.9,474.6v-20.8h-7.4v-2.6h17.7v2.6h-7.4v20.8H-103.9z"/>
	<path d="M-88.8,472.4h-2.6l5.6-6.3l-5.6-6.2h2.6l5.6,6.2L-88.8,472.4z M-83.8,472.4h-2.6l5.6-6.3l-5.6-6.2h2.6l5.6,6.2L-83.8,472.4
		z"/>
	<path d="M-258.8,508.2c0-5,3.4-8.9,8.4-8.9c3.1,0,4.9,1.3,6.2,2.9l-1.8,1.6c-1.1-1.5-2.6-2.2-4.3-2.2c-3.6,0-5.8,2.8-5.8,6.5
		s2.2,6.5,5.8,6.5c1.8,0,3.2-0.7,4.3-2.2l1.8,1.6c-1.3,1.7-3.1,2.9-6.2,2.9C-255.4,517-258.8,513.2-258.8,508.2z"/>
	<path d="M-229,516.6l-6.1-7.6l-2.8,2.8v4.8h-2.6v-16.9h2.6v9l8.9-9h3.3l-7.5,7.7l7.5,9.2H-229z"/>
	<path d="M-223.1,520.9c0.4,0.2,1,0.3,1.4,0.3c1.2,0,1.9-0.4,2.5-1.8l1.1-2.6l-7.1-17.1h2.8l5.6,13.9l5.6-13.9h2.9l-8.5,20.3
		c-1,2.5-2.7,3.4-5,3.4c-0.6,0-1.4-0.1-1.9-0.2L-223.1,520.9z"/>
	<path d="M-194,516.6V502h-8.8v14.6h-2.6v-16.9h14.1v16.9H-194z"/>
	<path d="M-174.6,516.6l-6.1-7.6l-2.8,2.8v4.8h-2.6v-16.9h2.6v9l8.9-9h3.3l-7.5,7.7l7.5,9.2H-174.6z"/>
	<path d="M-157.5,516.6v-1.9c-1.4,1.5-3.3,2.3-5.6,2.3c-2.9,0-5.9-1.9-5.9-5.6c0-3.8,3-5.6,5.9-5.6c2.3,0,4.2,0.7,5.6,2.3v-3
		c0-2.3-1.8-3.6-4.3-3.6c-2,0-3.7,0.7-5.2,2.3l-1.2-1.8c1.8-1.9,4-2.8,6.8-2.8c3.6,0,6.5,1.6,6.5,5.7v11.6H-157.5z M-157.5,513.1
		v-3.2c-1-1.4-2.8-2.1-4.7-2.1c-2.5,0-4.2,1.5-4.2,3.7c0,2.1,1.7,3.7,4.2,3.7C-160.3,515.2-158.5,514.5-157.5,513.1z"/>
	<path d="M-137.5,516.6V502h-4.9v-2.3h12.5v2.3h-4.9v14.6H-137.5z"/>
	<path d="M-127.5,508.2c0-4.9,3.5-8.9,8.3-8.9c5.1,0,8.1,4,8.1,9.1v0.7h-13.7c0.2,3.2,2.5,5.8,6.1,5.8c1.9,0,3.9-0.8,5.2-2.1
		l1.3,1.7c-1.7,1.7-4,2.6-6.7,2.6C-123.9,517-127.5,513.4-127.5,508.2z M-119.2,501.5c-3.6,0-5.4,3-5.5,5.6h11.1
		C-113.7,504.6-115.4,501.5-119.2,501.5z"/>
	<path d="M-95.9,516.6l-5.1-6.9l-5.1,6.9h-3l6.5-8.7l-6.1-8.2h3l4.7,6.4l4.7-6.4h3l-6.1,8.2l6.5,8.7H-95.9z"/>
	<path d="M-89.8,516.6v-16.9h2.6v7h8.8v-7h2.6v16.9h-2.6v-7.6h-8.8v7.6H-89.8z"/>
	<path d="M-70.5,516.6v-16.9h2.6v12.9l8.9-12.9h2.6v16.9h-2.6v-13.2l-8.9,13.2H-70.5z"/>
	<path d="M-39.7,516.6l-6.1-7.6l-2.8,2.8v4.8h-2.6v-16.9h2.6v9l8.9-9h3.3l-7.5,7.7l7.5,9.2H-39.7z"/>
	<path d="M-33.2,516.6v-16.9h2.6v12.9l8.9-12.9h2.6v16.9h-2.6v-13.2l-8.9,13.2H-33.2z"/>
</g>
</svg>
