<?xml version="1.0" encoding="utf-8"?>
<!-- Generator: Adobe Illustrator 19.2.1, SVG Export Plug-In . SVG Version: 6.00 Build 0)  -->
<svg version="1.1" id="Layer_2" xmlns="http://www.w3.org/2000/svg" xmlns:xlink="http://www.w3.org/1999/xlink" x="0px" y="0px"
	 viewBox="0 0 410 424" style="enable-background:new 0 0 410 424;" xml:space="preserve">
<style type="text/css">
	.st0{opacity:0.6;}
	.st1{fill:#FFFFFF;}
	.st2{fill:#7D519E;}
	.st3{opacity:0.5;}
	.st4{fill:url(#SVGID_1_);}
</style>
<g class="st0">
	<image style="overflow:visible;" width="343" height="363" xlink:href="6A9F562A.png"  transform="matrix(1 0 0 1 28 41)">
	</image>
</g>
<path class="st1" d="M289,52.3c-22.6-8.7-88.7-8.5-88.7-8.5c-82.2-0.1-95.8,8.5-95.8,8.5C59.3,69.7,31,106.8,31,156.7
	c0,78.2-0.1,76.2,0.3,82.5c1.1,15.9,3.7,33.1,12.4,47.3c24.8,40.6,58,46.3,62.5,48v40.9c0,7,4.1,13.3,10.5,16.1l0.1,0.1
	c6.7,2.9,13.9,0.3,18.3-3.9c4.5-4.2,39.2-39.3,39.2-39.3c13.9,0.3,17.9,0,26,0.1v-0.1c30.3-0.8,65.2-4.2,89.2-14
	c47.1-19.4,73-56.4,73-104.2v-73.2C362.5,108.3,335.8,70.3,289,52.3z"/>
<path class="st2" d="M280.6,74.3c-23.4-9-146-9.5-167.7,0C75.2,91,54.5,118.5,54.5,156.7V230c0,38,20.1,68,62.1,83.9v63.9
	c0,5.2,6.3,7.7,9.9,3.9l52.3-55.9c50.1,2.2,80.8-4.7,101.8-13.3c38.2-15.7,58.4-44.2,58.4-82.4v-73.2
	C339,118.5,319.2,89.1,280.6,74.3z"/>
<g class="st3">
	<linearGradient id="SVGID_1_" gradientUnits="userSpaceOnUse" x1="177.532" y1="68.5745" x2="223.2396" y2="364.7611">
		<stop  offset="0" style="stop-color:#FFFFFF"/>
		<stop  offset="1" style="stop-color:#000000"/>
	</linearGradient>
	<path class="st4" d="M280.6,74.3c-23.4-9-146-9.5-167.7,0C75.2,91,54.5,118.5,54.5,156.7V230c0,38,20.1,68,62.1,83.9v63.9
		c0,5.2,6.3,7.7,9.9,3.9l52.3-55.9c50.1,2.2,80.8-4.7,101.8-13.3c38.2-15.7,58.4-44.2,58.4-82.4v-73.2
		C339,118.5,319.2,89.1,280.6,74.3z"/>
</g>
<g>
	<g>
		<path class="st1" d="M183.2,254.7c11.9,7.2,41.5,28,53.5,30.8c6.2,1.4,12.1,0.6,16.3-0.5c3.8-1,7.1-3.3,9.5-6.4l13.6-18
			c0,0,2.7-7.1-3.4-13.8c-6.2-6.7-30-23.5-33.6-25.7c-3.5-2.3-12.9,0.3-16.5,3.8c-3.6,3.5-5.4,7.8-9,11c-3.6,3.1-19.5-3.3-24-7.3
			c-41.9-38.5,9.7,14.5-27.7-28.4c-3.9-4.5-9.9-20.6-6.6-24.1c3.2-3.5,7.6-5.2,11.2-8.7c3.6-3.5,6.4-12.8,4.3-16.4
			c-2.2-3.6-18.2-27.9-24.8-34.2c-6.6-6.3-13.7-3.8-13.7-3.8L114,125.9c-3.2,2.3-5.6,5.6-6.7,9.3c-1.2,4.2-2.2,10-0.9,16.3
			c2.5,12.1,22.4,42.2,29.3,54.3C142.7,218.2,171,247.3,183.2,254.7z"/>
	</g>
	<g>
		<path class="st1" d="M242.4,179.7c2.6,0,4.6-2.1,4.7-4.6c0.1-7.8-2.3-15.2-7-21.4c-0.2-0.3-0.4-0.6-0.7-0.9l-0.3-0.4l-0.4-0.3
			c-0.3-0.2-0.6-0.5-0.8-0.7c-6.1-4.8-13.4-7.5-21.2-7.6c0,0-0.1,0-0.1,0c-2.5,0-4.6,2-4.7,4.6c0,2.6,2,4.7,4.6,4.7
			c5.7,0.1,11.1,2,15.6,5.6c0.1,0.1,0.2,0.1,0.3,0.2c0.1,0.1,0.1,0.2,0.2,0.3c3.4,4.6,5.2,10,5.1,15.7
			C237.7,177.6,239.8,179.7,242.4,179.7C242.4,179.7,242.4,179.7,242.4,179.7z"/>
	</g>
	<g>
		<path class="st1" d="M262.5,189.4c2.4,0,4.4-1.8,4.6-4.2c1.6-16.3-3.7-32.7-14.4-45.1l-0.8-0.8c-12.1-11.1-28.4-16.8-44.7-15.7
			c-2.6,0.2-4.5,2.4-4.3,5c0.2,2.6,2.4,4.5,5,4.3c14-1,27.4,3.7,37.8,13.2l0,0c9.2,10.6,13.5,24.1,12.2,38.1
			c-0.3,2.6,1.6,4.9,4.2,5.1C262.1,189.4,262.3,189.4,262.5,189.4z"/>
	</g>
	<g>
		<path class="st1" d="M281.9,199.1c0.2,0,0.4,0,0.6,0c2.3,0,4.3-1.7,4.6-4.1c3-24.8-4.8-49.6-21.5-68.1l-0.2-0.3
			c-18-17.2-42.6-25.7-67.5-23.3c-2.6,0.2-4.5,2.5-4.2,5.1c0.2,2.6,2.5,4.5,5.1,4.2c22.1-2.1,43.9,5.4,60,20.7
			c14.8,16.5,21.7,38.5,19,60.6C277.5,196.4,279.4,198.7,281.9,199.1z"/>
	</g>
</g>
</svg>
